# xmcd
#
# Track frame offsets: 
#        150
#        16451
#        34154
#        54693
#        76744
#        95818
#        115734
#        133576
#        155477
#        171144
#        189982
#        208855
#        227676
#
# Disc length: 3212 seconds
#
# Revision: 0
# Processed by: cddbd v1.5.2PL0 Copyright (c) Steve Scherf et al.
# Submitted via: ExactAudioCopy v1.0b1
#
DISCID=a90c8a0d
DTITLE=Teresa James and The Rhythm Tramps - The Bottom Line
DYEAR=2009
DGENRE=Blues
TTITLE0=All Time Low
TTITLE1=Put The Squeeze On Me
TTITLE2=If Momma Don't Dig It
TTITLE3=Whet My Appetite
TTITLE4=Don't Make A Habit Of It
TTITLE5=I Know Handsome When I See It
TTITLE6=eieio
TTITLE7=The Bottom Line
TTITLE8=Next Big Thang
TTITLE9=How Am I Gonna Stop Loving You
TTITLE10=In The Pink
TTITLE11=I Call Your Bluff
TTITLE12=I Do My Drinkin' On the Weekend
EXTD=
EXTT0=
EXTT1=
EXTT2=
EXTT3=
EXTT4=
EXTT5=
EXTT6=
EXTT7=
EXTT8=
EXTT9=
EXTT10=
EXTT11=
EXTT12=
PLAYORDER=
